<?xml version="1.0" encoding="UTF-8"?>
<svg width="182px" height="182px" viewBox="0 0 182 182" version="1.1" xmlns="http://www.w3.org/2000/svg" xmlns:xlink="http://www.w3.org/1999/xlink">
    <!-- Generator: Sketch 44.1 (41455) - http://www.bohemiancoding.com/sketch -->
    <title>开始投资</title>
    <desc>Created with Sketch.</desc>
    <defs>
        <rect id="path-1" x="0" y="0" width="182" height="182"></rect>
    </defs>
    <g id="首页" stroke="none" stroke-width="1" fill="none" fill-rule="evenodd">
        <g transform="translate(-990.000000, -480.000000)" id="开始投资">
            <g transform="translate(990.000000, 480.000000)">
                <g id="Rectangle-2" opacity="0.08">
                    <use fill="#D8D8D8" fill-rule="evenodd" xlink:href="#path-1"></use>
                    <rect stroke="#FFFFFF" stroke-width="1" x="0.5" y="0.5" width="181" height="181"></rect>
                </g>
                <g id="icon_钱袋" transform="translate(60.000000, 28.000000)">
                    <g id="钱袋">
                        <path d="M15.2018315,31.7499283 L41.6814886,31.4312468 C41.6814886,31.4312468 57.2472488,47.6629788 56.6674241,58.6158462 C56.0875993,69.5687137 44.9138714,74.4208818 44.9138714,74.4208818 C40.2640301,77.3872948 32.0205625,79.7920476 26.4962551,79.7920476 L30.8800368,79.7920476 C25.3581095,79.7920476 16.7516831,78.0452198 11.9225761,75.3811717 C11.9225761,75.3811717 2.18268378,73.4203986 0.379482449,60.4491596 C-1.42371888,47.4779205 15.2018315,31.7499283 15.2018315,31.7499283 Z" id="Path-2" stroke="#979797"></path>
                        <polygon id="Path-3" stroke="#979797" points="16.247535 24.0930179 12.6030694 12.1691217 22.4794261 17.4126159 27.9659682 0.245225542 34.6683003 17.4126159 43.6492703 11.748956 40.3745751 23.7070415"></polygon>
                        <path d="M42.1490683,27.9573419 C42.1490683,27.9573419 50.6324228,21.462579 59.8914791,19.2715372 C73.1402549,16.1363772 77.6338898,22.2713539 77.6338898,22.2713539 L75.8564401,24.8925294 C75.8564401,24.8925294 75.8564401,22.2713539 71.1591189,21.0586822 C61.2106026,18.2126354 42.1490683,27.9573419 42.1490683,27.9573419 Z" id="Path-4" stroke="#979797"></path>
                        <path d="M42.1490683,27.9573419 C42.1490683,27.9573419 59.033856,22.6128591 62.6516295,23.5289055 C71.0615741,23.5289055 73.7193507,31.3111848 73.7193507,31.3111848 L71.6212433,32.724821 C71.6212433,32.724821 70.7239404,28.9170123 63.7429057,26.6287433 C56.7618711,24.3404743 42.1490683,27.9573419 42.1490683,27.9573419 Z" id="Path-4" stroke="#979797"></path>
                        <rect id="Rectangle-4" stroke="#979797" x="16.0031056" y="26.3536585" width="24.6770186" height="2.90243902"></rect>
                        <text id="¥" opacity="0.8" font-family="PingFangSC-Regular, PingFang SC" font-size="30" font-weight="normal" fill="#FFFFFF">
                            <tspan x="19.1994833" y="67.5555556">¥</tspan>
                        </text>
                    </g>
                </g>
                <text opacity="0.800000012" font-family="PingFangSC-Regular, PingFang SC" font-size="25" font-weight="normal" fill="#FFFFFF">
                    <tspan x="40" y="155">开始投资</tspan>
                </text>
            </g>
        </g>
    </g>
</svg>